<svg width="128" height="128" viewBox="0 0 128 128" fill="none" xmlns="http://www.w3.org/2000/svg">
  <defs>
    <linearGradient id="bg" x1="12" y1="8" x2="118" y2="118" gradientUnits="userSpaceOnUse">
      <stop stop-color="#0A6FA7"/>
      <stop offset="1" stop-color="#25C0F2"/>
    </linearGradient>
    <linearGradient id="bird" x1="33" y1="26" x2="86" y2="89" gradientUnits="userSpaceOnUse">
      <stop stop-color="#F9FDFF"/>
      <stop offset="1" stop-color="#CBEFFF"/>
    </linearGradient>
    <linearGradient id="plane" x1="61" y1="65" x2="108" y2="65" gradientUnits="userSpaceOnUse">
      <stop stop-color="#FFD18A"/>
      <stop offset="1" stop-color="#FF9E49"/>
    </linearGradient>
  </defs>
  <rect x="6" y="6" width="116" height="116" rx="30" fill="url(#bg)"/>
  <path d="M29 74C40 62 44 50 40 33C54 46 68 50 87 49C69 56 60 69 54 87C49 78 43 74 29 74Z" fill="url(#bird)"/>
  <path d="M58 54C66 57 75 56 84 52C76 61 72 72 70 84C66 76 62 68 54 63L58 54Z" fill="#E8F7FF"/>
  <path d="M52 42L58 37L63 41L58 46L52 42Z" fill="#F7FCFF"/>
  <path d="M59 67L109 58L77 72L109 71L59 81L66 74L59 67Z" fill="url(#plane)"/>
  <circle cx="45.5" cy="41.5" r="2.5" fill="#0A5F8E"/>
  <path d="M17 95C27 88 36 88 45 95" stroke="#AEE7FF" stroke-width="3" stroke-linecap="round"/>
  <path d="M84 98C92 92 102 92 111 98" stroke="#AEE7FF" stroke-width="3" stroke-linecap="round"/>
</svg>
