<svg width="96" height="96" viewBox="0 0 96 96" fill="none" xmlns="http://www.w3.org/2000/svg">
  <rect width="96" height="96" rx="28" fill="url(#bg)"/>
  <rect x="8" y="8" width="80" height="80" rx="22" stroke="url(#ring)" stroke-width="2"/>
  <path d="M24 32H52L44 40H24V32Z" fill="#E8F8FF"/>
  <path d="M24 45H44L36 53H24V45Z" fill="#BFF0FF"/>
  <path d="M24 58H36L30 64H24V58Z" fill="#7DE3FF"/>
  <path d="M60 28L72 36V60L60 68L48 60V36L60 28Z" fill="url(#core)"/>
  <path d="M60 37L65.5 40.2V47L60 50.2L54.5 47V40.2L60 37Z" fill="#041826"/>
  <circle cx="72" cy="24" r="4" fill="#7DE3FF"/>
  <circle cx="21" cy="71" r="3" fill="#7DE3FF"/>
  <path d="M68.5 26.5L64 31" stroke="#7DE3FF" stroke-width="2" stroke-linecap="round"/>
  <path d="M28 67L33 62" stroke="#7DE3FF" stroke-width="2" stroke-linecap="round"/>
  <defs>
    <linearGradient id="bg" x1="9" y1="6" x2="84" y2="90" gradientUnits="userSpaceOnUse">
      <stop stop-color="#0A2236"/>
      <stop offset="0.52" stop-color="#123E5E"/>
      <stop offset="1" stop-color="#0E6DA0"/>
    </linearGradient>
    <linearGradient id="ring" x1="16" y1="14" x2="80" y2="84" gradientUnits="userSpaceOnUse">
      <stop stop-color="#84EDFF" stop-opacity="0.95"/>
      <stop offset="1" stop-color="#1AB3F0" stop-opacity="0.35"/>
    </linearGradient>
    <linearGradient id="core" x1="48" y1="28" x2="76" y2="66" gradientUnits="userSpaceOnUse">
      <stop stop-color="#79E8FF"/>
      <stop offset="1" stop-color="#11A1E8"/>
    </linearGradient>
  </defs>
</svg>
